<svg width="24" height="24" viewBox="0 0 24 24" fill="none" xmlns="http://www.w3.org/2000/svg">
<g clip-path="url(#clip0_1_55)">
<path d="M16.5 13C16.5 12.8674 16.4473 12.7402 16.3536 12.6464C16.2598 12.5527 16.1326 12.5 16 12.5H13.5V10C13.5 9.86739 13.4473 9.74021 13.3536 9.64645C13.2598 9.55268 13.1326 9.5 13 9.5H11C10.8674 9.5 10.7402 9.55268 10.6464 9.64645C10.5527 9.74021 10.5 9.86739 10.5 10V12.5H8C7.86739 12.5 7.74021 12.5527 7.64645 12.6464C7.55268 12.7402 7.5 12.8674 7.5 13V15C7.5 15.1326 7.55268 15.2598 7.64645 15.3536C7.74021 15.4473 7.86739 15.5 8 15.5H10.5V18C10.5 18.1326 10.5527 18.2598 10.6464 18.3536C10.7402 18.4473 10.8674 18.5 11 18.5H13C13.1326 18.5 13.2598 18.4473 13.3536 18.3536C13.4473 18.2598 13.5 18.1326 13.5 18V15.5H16C16.1326 15.5 16.2598 15.4473 16.3536 15.3536C16.4473 15.2598 16.5 15.1326 16.5 15V13Z" stroke="white" stroke-width="1.5" stroke-linecap="round" stroke-linejoin="round"/>
<path d="M21.5 5.5H2.5C1.39543 5.5 0.5 6.39543 0.5 7.5V19.5C0.5 20.6046 1.39543 21.5 2.5 21.5H21.5C22.6046 21.5 23.5 20.6046 23.5 19.5V7.5C23.5 6.39543 22.6046 5.5 21.5 5.5Z" stroke="white" stroke-width="1.5" stroke-linecap="round" stroke-linejoin="round"/>
<path d="M8.5 5.5V4C8.5 3.60218 8.65804 3.22064 8.93934 2.93934C9.22064 2.65804 9.60218 2.5 10 2.5H14C14.3978 2.5 14.7794 2.65804 15.0607 2.93934C15.342 3.22064 15.5 3.60218 15.5 4V5.5" stroke="white" stroke-width="1.5" stroke-linecap="round" stroke-linejoin="round"/>
</g>
<defs>
<clipPath id="clip0_1_55">
<rect width="24" height="24" fill="white"/>
</clipPath>
</defs>
</svg>
