<svg width="24" height="24" viewBox="0 0 24 24" fill="none" xmlns="http://www.w3.org/2000/svg">
<path d="M9.5 3.5V11.5L4.7 19.354C4.49028 19.654 4.36689 20.0057 4.34328 20.371C4.31967 20.7362 4.39673 21.1009 4.56608 21.4254C4.73543 21.7499 4.99058 22.0217 5.30372 22.2111C5.61686 22.4006 5.976 22.5005 6.342 22.5H17.658C18.024 22.5005 18.3831 22.4006 18.6963 22.2111C19.0094 22.0217 19.2646 21.7499 19.4339 21.4254C19.6033 21.1009 19.6803 20.7362 19.6567 20.371C19.6331 20.0057 19.5097 19.654 19.3 19.354L14.5 11.5V3.5" stroke="#0A2878" stroke-linecap="round" stroke-linejoin="round"/>
<path d="M16.5 2.5C16.5 2.76522 16.3946 3.01957 16.2071 3.20711C16.0196 3.39464 15.7652 3.5 15.5 3.5H8.5C8.23478 3.5 7.98043 3.39464 7.79289 3.20711C7.60536 3.01957 7.5 2.76522 7.5 2.5C7.5 2.23478 7.60536 1.98043 7.79289 1.79289C7.98043 1.60536 8.23478 1.5 8.5 1.5H15.5C15.7652 1.5 16.0196 1.60536 16.2071 1.79289C16.3946 1.98043 16.5 2.23478 16.5 2.5Z" stroke="#0A2878" stroke-linecap="round" stroke-linejoin="round"/>
<path d="M14.5 5.5H12.5" stroke="#0A2878" stroke-linecap="round" stroke-linejoin="round"/>
<path d="M14.5 9.5H12.5" stroke="#0A2878" stroke-linecap="round" stroke-linejoin="round"/>
<path d="M14.5 7.5H11.5" stroke="#0A2878" stroke-linecap="round" stroke-linejoin="round"/>
<path d="M7.05701 15.5H16.943" stroke="#0A2878" stroke-linecap="round" stroke-linejoin="round"/>
<path d="M9.5 20.5C10.3284 20.5 11 19.8284 11 19C11 18.1716 10.3284 17.5 9.5 17.5C8.67157 17.5 8 18.1716 8 19C8 19.8284 8.67157 20.5 9.5 20.5Z" stroke="#0A2878" stroke-linecap="round" stroke-linejoin="round"/>
<path d="M15.5 20.25C15.5663 20.25 15.6299 20.2763 15.6768 20.3232C15.7237 20.3701 15.75 20.4337 15.75 20.5" stroke="#0A2878" stroke-linecap="round" stroke-linejoin="round"/>
<path d="M15.25 20.5C15.25 20.4337 15.2763 20.3701 15.3232 20.3232C15.3701 20.2763 15.4337 20.25 15.5 20.25" stroke="#0A2878" stroke-linecap="round" stroke-linejoin="round"/>
<path d="M15.5 20.75C15.4337 20.75 15.3701 20.7237 15.3232 20.6768C15.2763 20.6299 15.25 20.5663 15.25 20.5" stroke="#0A2878" stroke-linecap="round" stroke-linejoin="round"/>
<path d="M15.75 20.5C15.75 20.5663 15.7237 20.6299 15.6768 20.6768C15.6299 20.7237 15.5663 20.75 15.5 20.75" stroke="#0A2878" stroke-linecap="round" stroke-linejoin="round"/>
<path d="M13.5 17.25C13.5663 17.25 13.6299 17.2763 13.6768 17.3232C13.7237 17.3701 13.75 17.4337 13.75 17.5" stroke="#0A2878" stroke-linecap="round" stroke-linejoin="round"/>
<path d="M13.25 17.5C13.25 17.4337 13.2763 17.3701 13.3232 17.3232C13.3701 17.2763 13.4337 17.25 13.5 17.25" stroke="#0A2878" stroke-linecap="round" stroke-linejoin="round"/>
<path d="M13.5 17.75C13.4337 17.75 13.3701 17.7237 13.3232 17.6768C13.2763 17.6299 13.25 17.5663 13.25 17.5" stroke="#0A2878" stroke-linecap="round" stroke-linejoin="round"/>
<path d="M13.75 17.5C13.75 17.5663 13.7237 17.6299 13.6768 17.6768C13.6299 17.7237 13.5663 17.75 13.5 17.75" stroke="#0A2878" stroke-linecap="round" stroke-linejoin="round"/>
</svg>
