<svg width="240" height="36" viewBox="0 0 240 36" fill="none" xmlns="http://www.w3.org/2000/svg">
<path fill-rule="evenodd" clip-rule="evenodd" d="M7.80451 13.3382C15.7558 7.19297 24.0597 4.646 25.0469 6.69848C25.7715 8.20464 23.1714 12.2494 18.5957 16.7246C18.4453 16.8712 18.0961 16.8626 18.2007 16.6268C19.5364 14.7744 20.1126 13.3104 19.7277 12.5179C18.8662 10.7501 12.4624 12.6016 5.17939 16.8828C3.0806 18.2429 2.94884 17.5682 4.28416 16.3314C5.36737 15.3193 6.54363 14.3127 7.80451 13.3382ZM42.6439 13.0121C29.0048 13.1674 26.902 28.2177 40.7979 28.2177L48.2333 28.2437L48.6176 24.7409H41.1824C34.8502 24.6631 35.8497 16.5148 42.2854 16.3854H49.7456L50.1562 13.0121H42.6439ZM53.5508 12.9857L51.7048 28.2437C54.9352 28.2437 57.5504 28.296 57.8323 25.234L59.3451 12.9857H53.5508ZM72.9784 28.2437H66.8253C65.4151 23.21 63.082 17.9683 61.2362 12.9857H67.5688L70.389 23.4436L75.6705 12.9857H81.8749L72.9784 28.2437ZM94.387 28.2177C107.694 27.8808 109.744 13.1674 96.3102 13.0379H91.721C78.0811 13.1937 75.9792 28.2177 89.8747 28.2177C90.2853 28.2177 94.3617 28.27 94.387 28.2177ZM95.6437 16.4372C101.899 16.4892 100.925 24.4033 94.7207 24.7409H90.2596C83.9267 24.6891 84.9269 16.5148 91.3617 16.3854L95.6437 16.4372ZM113.609 16.375L113.007 21.3745H116.639C121.865 21.2764 122.393 16.34 117.491 16.375H113.609ZM108.606 12.9998H111.287L111.288 12.9857L118.43 12.9966C129.57 13.0286 127.796 24.4991 117.153 24.5146H112.63L112.182 28.2441H106.772L108.606 12.9998Z" fill="white"/>
<path fill-rule="evenodd" clip-rule="evenodd" d="M59.5502 11.0674L60.1705 6.01837C56.9658 6.01837 54.3508 5.96654 54.0431 9.02821L53.7816 11.0674H59.5502ZM21.2202 25.5302C16.9547 27.8916 6.02496 31.5865 2.12972 29.2607C-1.76551 26.9351 -0.415262 22.1634 6.98879 17.0194C7.49135 16.6874 7.76938 17.0388 7.5704 17.3095C5.40315 19.3595 5.74394 21.342 6.95605 22.8748C8.76364 25.1598 15.1503 26.4788 25.5052 21.5169C31.1304 18.2739 25.3757 23.2298 21.2202 25.5302Z" fill="white"/>
<path d="M153.673 22.0215C152.75 22.0215 152.074 21.7389 151.644 21.1736C151.215 20.6245 151 19.9462 151 19.1386C151 18.3149 151.175 17.459 151.525 16.5707C151.875 15.6662 152.352 14.7941 152.957 13.9542C153.577 13.1144 154.381 12.4118 155.367 11.8466C156.37 11.2651 157.444 10.9744 158.589 10.9744C159.114 10.9744 159.512 11.144 159.783 11.4832C160.053 11.8062 160.188 12.1938 160.188 12.646C160.188 13.5828 159.862 14.4549 159.21 15.2624C158.557 16.07 157.834 16.6837 157.038 17.1036C156.242 17.5236 155.534 17.7658 154.914 17.8304C154.309 17.8789 153.904 17.9919 153.697 18.1696C153.49 18.3472 153.387 18.7026 153.387 19.2355C153.387 19.7685 153.506 20.1723 153.745 20.4468C153.983 20.7214 154.222 20.9071 154.461 21.004C154.699 21.1009 154.819 21.1978 154.819 21.2948C154.819 21.5209 154.699 21.6985 154.461 21.8277C154.222 21.9569 153.959 22.0215 153.673 22.0215ZM157.873 13.2517C157.873 12.751 157.651 12.5007 157.205 12.5007C156.569 12.5007 155.861 12.9529 155.081 13.8573C154.317 14.7618 153.935 15.5774 153.935 16.3042C153.935 16.4818 154.071 16.5707 154.341 16.5707C154.994 16.5707 155.741 16.2315 156.585 15.5532C157.444 14.8748 157.873 14.1077 157.873 13.2517Z" fill="#F02D00"/>
<path d="M167.651 17.249C167.651 17.249 165.233 17.2571 160.396 17.2732C160.189 17.2732 160.086 17.1925 160.086 17.031C160.086 16.821 160.253 16.5222 160.587 16.1346C160.921 15.7308 161.327 15.5289 161.804 15.5289H169.035C169.258 15.5289 169.369 15.6016 169.369 15.747C169.369 15.9731 169.202 16.2799 168.868 16.6676C168.55 17.0552 168.144 17.249 167.651 17.249Z" fill="#F02D00"/>
<path d="M169.969 21.5612C169.969 20.9152 170.231 19.9139 170.756 18.5572C171.281 17.1844 171.87 15.852 172.522 14.5599C173.174 13.2678 174.058 11.677 175.171 9.78735C176.826 6.99327 178.528 4.22342 180.278 1.47779C180.549 1.04172 180.971 0.686407 181.543 0.411844C182.116 0.137282 182.633 0 183.095 0C183.556 0 183.795 0.129206 183.811 0.387618C183.811 0.468372 183.763 0.557201 183.667 0.654105C183.126 1.15478 182.22 2.31763 180.947 4.14266C179.674 5.95155 178.321 8.02692 176.89 10.3688C175.474 12.7106 174.225 15.1817 173.143 17.782C172.077 20.3822 171.544 22.5061 171.544 24.1534C171.544 24.3957 171.472 24.5168 171.329 24.5168C171.058 24.5168 170.828 24.4118 170.637 24.2019C170.446 24.0081 170.311 23.7577 170.231 23.4509C170.056 22.8371 169.969 22.2073 169.969 21.5612Z" fill="#F02D00"/>
<path d="M177.329 22.0215C176.406 22.0215 175.73 21.7389 175.3 21.1736C174.871 20.6245 174.656 19.9462 174.656 19.1386C174.656 18.3149 174.831 17.459 175.181 16.5707C175.531 15.6662 176.008 14.7941 176.613 13.9542C177.233 13.1144 178.037 12.4118 179.023 11.8466C180.026 11.2651 181.1 10.9744 182.245 10.9744C182.77 10.9744 183.168 11.144 183.438 11.4832C183.709 11.8062 183.844 12.1938 183.844 12.646C183.844 13.5828 183.518 14.4549 182.866 15.2624C182.213 16.07 181.489 16.6837 180.694 17.1036C179.898 17.5236 179.19 17.7658 178.57 17.8304C177.965 17.8789 177.56 17.9919 177.353 18.1696C177.146 18.3472 177.042 18.7026 177.042 19.2355C177.042 19.7685 177.162 20.1723 177.4 20.4468C177.639 20.7214 177.878 20.9071 178.116 21.004C178.355 21.1009 178.474 21.1978 178.474 21.2948C178.474 21.5209 178.355 21.6985 178.116 21.8277C177.878 21.9569 177.615 22.0215 177.329 22.0215ZM181.529 13.2517C181.529 12.751 181.306 12.5007 180.861 12.5007C180.225 12.5007 179.517 12.9529 178.737 13.8573C177.973 14.7618 177.591 15.5774 177.591 16.3042C177.591 16.4818 177.727 16.5707 177.997 16.5707C178.649 16.5707 179.397 16.2315 180.24 15.5532C181.1 14.8748 181.529 14.1077 181.529 13.2517Z" fill="#F02D00"/>
<path d="M187.504 19.7927L187.552 19.284C187.552 19.1548 187.504 19.0902 187.409 19.0902C187.266 19.0902 186.971 19.3001 186.526 19.7201C186.096 20.14 185.547 20.5599 184.879 20.9798C184.227 21.4159 183.566 21.6339 182.898 21.6339C182.246 21.6339 181.92 21.1413 181.92 20.1561C181.92 18.9287 182.445 17.5155 183.495 15.9166C184.036 15.109 184.656 14.3661 185.356 13.6878C186.072 12.9933 186.939 12.428 187.958 11.9919C188.976 11.5397 190.042 11.3136 191.156 11.3136C191.744 11.3136 192.245 11.4751 192.659 11.7981C193.073 12.105 193.28 12.4926 193.28 12.961C193.28 13.4132 193.144 13.6393 192.874 13.6393C192.731 13.6393 192.54 13.5505 192.301 13.3728C191.856 13.0659 191.156 12.9125 190.201 12.9125C188.944 12.9125 187.751 13.4939 186.621 14.6568C185.507 15.8035 184.951 16.9421 184.951 18.0727C184.951 18.218 184.99 18.3553 185.07 18.4845C185.165 18.6137 185.293 18.6783 185.452 18.6783C185.929 18.6783 186.542 18.3472 187.289 17.6851C188.037 17.0067 188.769 16.0377 189.485 14.7779C189.533 14.6326 189.708 14.4953 190.01 14.3661C190.312 14.2369 190.67 14.1723 191.084 14.1723C191.673 14.2207 191.967 14.3499 191.967 14.5599C191.967 14.576 191.903 14.681 191.776 14.8748C191.665 15.0525 191.458 15.3836 191.156 15.8681C190.853 16.3526 190.424 17.1521 189.867 18.2665C189.326 19.3647 189.008 20.2369 188.912 20.8829C188.896 21.0767 188.817 21.1736 188.674 21.1736C187.894 21.1736 187.504 20.7133 187.504 19.7927Z" fill="#F02D00"/>
<path d="M199.661 17.5639C199.359 17.5639 199.128 17.4105 198.969 17.1036C198.81 16.7806 198.73 16.4738 198.73 16.183C198.73 15.8762 198.826 15.5289 199.017 15.1413C199.017 14.9314 198.937 14.8264 198.778 14.8264C198.158 14.8264 197.45 15.2059 196.654 15.965C195.859 16.7079 195.19 17.4832 194.649 18.2907C194.108 19.0821 193.615 19.8816 193.17 20.6891C192.899 21.1736 192.342 21.4159 191.499 21.4159C191.069 21.4159 190.855 21.319 190.855 21.1252C190.855 20.6891 191.634 19.0659 193.194 16.2557C194.769 13.4293 195.811 11.9192 196.32 11.7254C196.67 11.5478 197.06 11.459 197.489 11.459C197.935 11.459 198.158 11.5559 198.158 11.7497C198.158 11.9273 197.975 12.2826 197.609 12.8156C197.243 13.3486 197.06 13.6878 197.06 13.8331C197.06 13.9785 197.115 14.0511 197.227 14.0511C197.29 14.0511 197.465 13.9542 197.752 13.7604C198.452 13.2275 199.311 12.6783 200.329 12.1131L200.544 11.8223C200.926 11.3378 201.475 11.0956 202.191 11.0956C202.923 11.0956 203.289 11.2409 203.289 11.5316C203.257 11.6124 203.177 11.7416 203.05 11.9192C201.793 13.6635 200.735 15.4886 199.876 17.3943C199.812 17.5074 199.741 17.5639 199.661 17.5639Z" fill="#F02D00"/>
<path d="M207.474 21.6824C207.028 21.6824 206.806 21.5774 206.806 21.3674L206.853 21.2221C207.808 19.7685 208.627 18.3715 209.312 17.031C209.996 15.6743 210.338 14.7941 210.338 14.3903C210.338 14.2611 210.306 14.1642 210.242 14.0996C210.179 14.0188 210.083 13.9704 209.956 13.9542C209.335 13.9542 208.5 14.358 207.45 15.1655C206.416 15.9731 205.501 16.8048 204.706 17.6608C203.926 18.5168 203.345 19.2194 202.963 19.7685C202.581 20.3015 202.009 20.568 201.245 20.568C200.831 20.568 200.624 20.463 200.624 20.253C200.624 19.8331 201.404 18.3553 202.963 15.8196C204.523 13.2678 205.557 11.895 206.066 11.7012C206.336 11.5397 206.678 11.459 207.092 11.459C207.522 11.459 207.736 11.5478 207.736 11.7254C207.736 11.8869 207.546 12.2503 207.164 12.8156C206.782 13.3809 206.591 13.7443 206.591 13.9058C206.623 14.035 206.686 14.0996 206.782 14.0996C206.893 14.0996 206.989 14.0673 207.068 14.0027C209.423 12.1454 211.3 11.2167 212.701 11.2167C213.289 11.2167 213.584 11.5639 213.584 12.2584C213.584 12.7106 213.249 13.6878 212.581 15.1898C211.929 16.6918 211.094 18.1534 210.075 19.5747C209.073 20.9798 208.206 21.6824 207.474 21.6824Z" fill="#F02D00"/>
<path d="M213.018 21.8762C212.795 21.8762 212.549 21.7308 212.278 21.4401C212.008 21.1655 211.873 20.8264 211.873 20.4226C211.873 20.1965 212.39 19.0579 213.424 17.0067C214.474 14.9394 215.015 13.5424 215.047 12.8156C215.047 12.5895 215.19 12.3795 215.476 12.1857C215.986 11.8789 216.741 11.7254 217.744 11.7254C217.935 11.7254 218.133 11.7658 218.34 11.8466C218.563 11.9112 218.674 12.0081 218.674 12.1373C218.674 12.2019 218.651 12.2584 218.603 12.3069C217.998 13.0821 217.115 14.4791 215.954 16.498C214.792 18.5168 213.917 20.1561 213.328 21.4159C213.249 21.7227 213.145 21.8762 213.018 21.8762ZM218.245 10.3688C217.545 10.3688 217.179 10.0861 217.147 9.52086V9.49664C217.147 9.01211 217.378 8.61642 217.839 8.30956C218.316 8.00269 218.786 7.84926 219.247 7.84926C219.947 7.84926 220.313 8.1319 220.345 8.69717C220.345 9.1817 220.114 9.58547 219.653 9.90848C219.191 10.2153 218.722 10.3688 218.245 10.3688Z" fill="#F02D00"/>
<path d="M223.019 21.6824C222.574 21.6824 222.351 21.5774 222.351 21.3674L222.399 21.2221C223.353 19.7685 224.173 18.3715 224.857 17.031C225.541 15.6743 225.883 14.7941 225.883 14.3903C225.883 14.2611 225.851 14.1642 225.788 14.0996C225.724 14.0188 225.629 13.9704 225.501 13.9542C224.881 13.9542 224.045 14.358 222.995 15.1655C221.961 15.9731 221.046 16.8048 220.251 17.6608C219.471 18.5168 218.89 19.2194 218.509 19.7685C218.127 20.3015 217.554 20.568 216.79 20.568C216.377 20.568 216.17 20.463 216.17 20.253C216.17 19.8331 216.949 18.3553 218.509 15.8196C220.068 13.2678 221.102 11.895 221.611 11.7012C221.882 11.5397 222.224 11.459 222.637 11.459C223.067 11.459 223.282 11.5478 223.282 11.7254C223.282 11.8869 223.091 12.2503 222.709 12.8156C222.327 13.3809 222.136 13.7443 222.136 13.9058C222.168 14.035 222.232 14.0996 222.327 14.0996C222.439 14.0996 222.534 14.0673 222.614 14.0027C224.968 12.1454 226.846 11.2167 228.246 11.2167C228.834 11.2167 229.129 11.5639 229.129 12.2584C229.129 12.7106 228.795 13.6878 228.126 15.1898C227.474 16.6918 226.639 18.1534 225.621 19.5747C224.618 20.9798 223.751 21.6824 223.019 21.6824Z" fill="#F02D00"/>
<path d="M225.179 32.8264C225.864 32.8264 226.938 31.7039 228.401 29.459C229.881 27.2301 231.194 25.0013 232.339 22.7725C233.485 20.5437 234.057 19.3163 234.057 19.0902C234.057 18.8479 233.994 18.7268 233.867 18.7268C233.739 18.7268 233.524 18.856 233.222 19.1144C232.92 19.3567 232.594 19.6312 232.244 19.9381C231.91 20.245 231.472 20.5195 230.931 20.7618C230.406 21.0202 229.881 21.1494 229.356 21.1494C228.704 21.1494 228.377 20.6568 228.377 19.6716C228.377 18.8802 228.592 17.9919 229.022 17.0067C229.451 16.0054 230.04 15.0444 230.788 14.1238C231.536 13.1871 232.514 12.4038 233.723 11.7739C234.933 11.144 236.229 10.8291 237.613 10.8291C237.963 10.8291 238.345 10.8937 238.759 11.0229C239.586 11.2813 240 11.7497 240 12.428C240 12.9125 239.865 13.1548 239.594 13.1548C239.515 13.1548 239.379 13.0982 239.189 12.9852C238.616 12.5976 237.733 12.4038 236.539 12.4038C235.346 12.4038 234.185 13.0094 233.055 14.2207C231.941 15.4159 231.385 16.5868 231.385 17.7335C231.385 18.1373 231.552 18.3392 231.886 18.3392C232.395 18.3392 233.095 17.9758 233.986 17.249C234.893 16.5061 235.792 15.4159 236.683 13.9785C236.73 13.7524 237.096 13.6393 237.78 13.6393C238.465 13.6393 238.807 13.7604 238.807 14.0027C238.807 14.1804 238.25 15.3432 237.136 17.4913C236.038 19.6231 235.108 21.3755 234.344 22.7483C233.58 24.1373 232.657 25.6716 231.575 27.3513C230.509 29.031 229.499 30.4764 228.544 31.6878C227.59 32.8991 226.595 33.9166 225.561 34.7402C224.527 35.5801 223.604 36 222.793 36C222.125 36 221.791 35.4347 221.791 34.3042C221.791 33.1736 222.117 31.9139 222.769 30.5249C223.421 29.1521 224.209 27.8843 225.132 26.7214C226.039 25.5747 227.009 24.5976 228.043 23.79C229.077 22.9825 229.945 22.5787 230.645 22.5787H230.716C230.907 22.5787 231.003 22.6353 231.003 22.7483C231.003 22.8614 230.907 22.9664 230.716 23.0633C230.112 23.3701 229.34 24.0485 228.401 25.0983C227.478 26.1642 226.643 27.3836 225.895 28.7564C225.132 30.1292 224.75 31.284 224.75 32.2207V32.245C224.75 32.6326 224.893 32.8264 225.179 32.8264Z" fill="#F02D00"/>
<path d="M152.98 29.3597L154.803 27.4261H153.857L151.771 29.6874V27.4261H151V31.9229H151.771V30.6188L152.454 29.8994L153.951 31.9229H154.885L152.98 29.3597Z" fill="white"/>
<path d="M156.167 31.9229H159.243V31.2034H156.937V27.4261H156.167V31.9229Z" fill="white"/>
<path d="M160.717 27.4261V31.9229H161.487V27.4261H160.717Z" fill="white"/>
<path d="M166.54 27.4261H163.288V31.9229H166.571V31.2163H164.059V30.0086H166.258V29.3019H164.059V28.1328H166.54V27.4261Z" fill="white"/>
<path d="M171.176 30.5353L168.826 27.4261H168.112V31.9229H168.87V28.7238L171.289 31.9229H171.934V27.4261H171.176V30.5353Z" fill="white"/>
<path d="M175.543 28.1585H176.934V27.4261H173.375V28.1585H174.766V31.9229H175.543V28.1585Z" fill="white"/>
<path d="M178.938 28.6017C178.938 28.4518 179.001 28.3255 179.126 28.2227C179.251 28.1156 179.427 28.0621 179.652 28.0621C179.853 28.0621 180.051 28.1028 180.248 28.1842C180.444 28.2612 180.642 28.3747 180.843 28.5246L181.256 27.9272C181.031 27.743 180.789 27.6039 180.53 27.5096C180.275 27.4111 179.987 27.3619 179.665 27.3619C179.448 27.3619 179.247 27.394 179.063 27.4582C178.88 27.5182 178.721 27.606 178.587 27.7216C178.458 27.8373 178.355 27.9764 178.28 28.1392C178.205 28.2976 178.167 28.4754 178.167 28.6724C178.167 28.8822 178.199 29.06 178.261 29.2056C178.328 29.3512 178.422 29.4754 178.543 29.5782C178.669 29.6809 178.821 29.7666 179.001 29.8351C179.185 29.9036 179.393 29.9657 179.627 30.0214C179.832 30.0728 179.997 30.1221 180.122 30.1692C180.252 30.2163 180.352 30.2677 180.423 30.3233C180.498 30.3747 180.548 30.4325 180.573 30.4968C180.603 30.561 180.617 30.6338 180.617 30.7152C180.617 30.8908 180.546 31.03 180.404 31.1328C180.266 31.2355 180.078 31.2869 179.84 31.2869C179.565 31.2869 179.318 31.2377 179.101 31.1392C178.884 31.0364 178.669 30.8908 178.456 30.7024L177.992 31.2677C178.255 31.5118 178.541 31.6938 178.85 31.8137C179.159 31.9293 179.483 31.9872 179.822 31.9872C180.051 31.9872 180.262 31.9572 180.454 31.8972C180.647 31.8373 180.812 31.7495 180.949 31.6338C181.087 31.5182 181.194 31.3769 181.269 31.2099C181.348 31.0428 181.388 30.8522 181.388 30.6381C181.388 30.4497 181.357 30.2869 181.294 30.1499C181.236 30.0086 181.148 29.8865 181.031 29.7837C180.914 29.6767 180.766 29.5867 180.586 29.5139C180.411 29.4411 180.208 29.3747 179.978 29.3148C179.769 29.2634 179.596 29.2141 179.458 29.167C179.324 29.1199 179.218 29.0685 179.139 29.0128C179.063 28.9572 179.011 28.8972 178.982 28.833C178.953 28.7687 178.938 28.6916 178.938 28.6017Z" fill="white"/>
<path d="M184.901 29.3597L186.724 27.4261H185.778L183.692 29.6874V27.4261H182.921V31.9229H183.692V30.6188L184.375 29.8994L185.872 31.9229H186.806L184.901 29.3597Z" fill="white"/>
<path d="M190.356 27.394H189.642L187.712 31.9229H188.501L188.952 30.8373H191.026L191.471 31.9229H192.286L190.356 27.394ZM190.744 30.137H189.234L189.986 28.3383L190.744 30.137ZM190.274 27.0535L191.039 26.3148L190.35 26L189.685 27.0535H190.274Z" fill="white"/>
<path d="M196.821 28.6017C196.821 28.4518 196.884 28.3255 197.009 28.2227C197.134 28.1156 197.31 28.0621 197.535 28.0621C197.736 28.0621 197.934 28.1028 198.131 28.1842C198.327 28.2612 198.525 28.3747 198.726 28.5246L199.139 27.9272C198.914 27.743 198.672 27.6039 198.413 27.5096C198.158 27.4111 197.87 27.3619 197.548 27.3619C197.331 27.3619 197.13 27.394 196.946 27.4582C196.763 27.5182 196.604 27.606 196.47 27.7216C196.341 27.8373 196.238 27.9764 196.163 28.1392C196.088 28.2976 196.05 28.4754 196.05 28.6724C196.05 28.8822 196.082 29.06 196.144 29.2056C196.211 29.3512 196.305 29.4754 196.426 29.5782C196.552 29.6809 196.704 29.7666 196.884 29.8351C197.068 29.9036 197.276 29.9657 197.51 30.0214C197.715 30.0728 197.88 30.1221 198.005 30.1692C198.135 30.2163 198.235 30.2677 198.306 30.3233C198.381 30.3747 198.431 30.4325 198.456 30.4968C198.486 30.561 198.5 30.6338 198.5 30.7152C198.5 30.8908 198.429 31.03 198.287 31.1328C198.149 31.2355 197.961 31.2869 197.723 31.2869C197.448 31.2869 197.201 31.2377 196.984 31.1392C196.767 31.0364 196.552 30.8908 196.339 30.7024L195.875 31.2677C196.138 31.5118 196.424 31.6938 196.733 31.8137C197.042 31.9293 197.366 31.9872 197.705 31.9872C197.934 31.9872 198.145 31.9572 198.337 31.8972C198.53 31.8373 198.695 31.7495 198.832 31.6338C198.97 31.5182 199.077 31.3769 199.152 31.2099C199.231 31.0428 199.271 30.8522 199.271 30.6381C199.271 30.4497 199.24 30.2869 199.177 30.1499C199.119 30.0086 199.031 29.8865 198.914 29.7837C198.797 29.6767 198.649 29.5867 198.469 29.5139C198.294 29.4411 198.091 29.3747 197.861 29.3148C197.652 29.2634 197.479 29.2141 197.341 29.167C197.207 29.1199 197.101 29.0685 197.022 29.0128C196.946 28.9572 196.894 28.8972 196.865 28.833C196.836 28.7687 196.821 28.6916 196.821 28.6017Z" fill="white"/>
<path d="M204.056 27.4261H200.804V31.9229H204.087V31.2163H201.575V30.0086H203.774V29.3019H201.575V28.1328H204.056V27.4261Z" fill="white"/>
<path d="M207.608 29.3597L209.431 27.4261H208.485L206.399 29.6874V27.4261H205.628V31.9229H206.399V30.6188L207.082 29.8994L208.579 31.9229H209.513L207.608 29.3597Z" fill="white"/>
<path d="M214.28 31.2034L213.785 30.6895C213.597 30.8694 213.407 31.0128 213.215 31.1199C213.023 31.2227 212.793 31.2741 212.526 31.2741C212.317 31.2741 212.123 31.2334 211.943 31.152C211.768 31.0664 211.615 30.9507 211.486 30.8051C211.356 30.6595 211.256 30.4904 211.185 30.2976C211.114 30.1006 211.078 29.8908 211.078 29.6681C211.078 29.4454 211.114 29.2377 211.185 29.045C211.256 28.8522 211.356 28.6852 211.486 28.5439C211.615 28.3983 211.768 28.2848 211.943 28.2034C212.123 28.1178 212.317 28.0749 212.526 28.0749C212.776 28.0749 213 28.1263 213.196 28.2291C213.393 28.3319 213.578 28.4668 213.754 28.6338L214.249 28.0493C214.144 27.9465 214.034 27.8522 213.917 27.7666C213.8 27.6809 213.672 27.6081 213.535 27.5482C213.397 27.4839 213.244 27.4347 213.077 27.4004C212.914 27.3662 212.733 27.349 212.532 27.349C212.198 27.349 211.893 27.4111 211.617 27.5353C211.342 27.6552 211.103 27.8223 210.903 28.0364C210.702 28.2463 210.546 28.4925 210.433 28.7752C210.324 29.0578 210.27 29.3597 210.27 29.6809C210.27 30.0064 210.326 30.3105 210.439 30.5931C210.552 30.8758 210.707 31.1221 210.903 31.3319C211.103 31.5375 211.339 31.7002 211.611 31.8201C211.882 31.94 212.179 32 212.501 32C212.705 32 212.891 31.9807 213.058 31.9422C213.23 31.9079 213.386 31.8565 213.528 31.788C213.67 31.7152 213.802 31.6317 213.923 31.5375C214.048 31.439 214.167 31.3276 214.28 31.2034Z" fill="white"/>
<path d="M218.969 27.4261H215.717V31.9229H219V31.2163H216.487V30.0086H218.687V29.3019H216.487V28.1328H218.969V27.4261Z" fill="white"/>
<line x1="138.25" y1="12" x2="138.25" y2="28" stroke="white" stroke-width="0.5"/>
</svg>
