<?xml version="1.0" encoding="UTF-8" standalone="no"?>
<!DOCTYPE svg PUBLIC "-//W3C//DTD SVG 1.1//EN" "http://www.w3.org/Graphics/SVG/1.1/DTD/svg11.dtd">
<svg width="100%" height="100%" viewBox="0 0 928 175" version="1.1" xmlns="http://www.w3.org/2000/svg" xmlns:xlink="http://www.w3.org/1999/xlink" xml:space="preserve" xmlns:serif="http://www.serif.com/" style="fill-rule:evenodd;clip-rule:evenodd;stroke-linejoin:round;stroke-miterlimit:2;">
    <g transform="matrix(1,0,0,1,-176.173,-267.707)">
        <path d="M233.633,321.086C292.173,276.385 353.309,257.858 360.577,272.788C365.912,283.744 346.769,313.166 313.081,345.719C311.974,346.786 309.403,346.723 310.173,345.008C320.007,331.533 324.249,320.884 321.415,315.119C315.073,302.26 267.926,315.728 214.306,346.87C198.854,356.764 197.884,351.856 207.715,342.859C215.69,335.497 224.35,328.175 233.633,321.086M490.132,318.714C389.716,319.844 374.235,429.322 476.541,429.322L531.283,429.511L534.112,404.031L479.372,404.031C432.752,403.465 440.111,344.193 487.492,343.252L542.417,343.252L545.44,318.714L490.132,318.714ZM570.432,318.522L556.841,429.511C580.624,429.511 599.878,429.891 601.954,407.618L613.091,318.522L570.432,318.522ZM713.464,429.511L668.163,429.511C657.781,392.895 640.604,354.766 627.014,318.522L673.637,318.522L694.4,394.594L733.284,318.522L778.963,318.522L713.464,429.511ZM871.081,429.322C969.048,426.871 984.146,319.844 885.24,318.902L851.453,318.902C751.032,320.035 735.557,429.322 837.86,429.322C840.883,429.322 870.895,429.702 871.081,429.322M880.333,343.629C926.389,344.007 919.217,401.575 873.538,404.031L840.694,404.031C794.069,403.654 801.433,344.193 848.808,343.252L880.333,343.629ZM1012.6,343.176L1008.17,379.543L1034.91,379.543C1073.38,378.83 1077.27,342.922 1041.18,343.176L1012.6,343.176ZM975.765,318.625L995.506,318.625L995.513,318.522L1048.09,318.601C1130.11,318.834 1117.05,402.272 1038.69,402.385L1005.39,402.385L1002.09,429.514L962.266,429.514L975.765,318.625Z" style="fill:white;"/>
    </g>
    <g transform="matrix(1,0,0,1,-176.173,-267.707)">
        <path d="M614.601,304.567L619.168,267.84C595.574,267.84 576.321,267.463 574.056,289.734L572.131,304.567L614.601,304.567ZM332.403,409.772C300.999,426.949 220.531,453.826 191.853,436.908C163.175,419.991 173.116,385.281 227.627,347.863C231.327,345.448 233.374,348.004 231.909,349.973C215.953,364.885 218.462,379.306 227.386,390.456C240.694,407.077 287.715,416.672 363.951,380.578C405.365,356.988 362.997,393.038 332.403,409.772" style="fill:white;"/>
    </g>
</svg>
