<svg width="24" height="24" viewBox="0 0 24 24" fill="none" xmlns="http://www.w3.org/2000/svg">
<g clip-path="url(#clip0_2_129)">
<path d="M11.5 4.64801V2.49001C11.5 2.21001 11.27 1.99001 11 1.99001H9.00001C8.72001 1.99001 8.50001 2.21001 8.50001 2.49001V4.63001L8.85001 4.15001C7.15001 4.65001 5.99001 6.21001 5.99001 7.98001L5.98001 22.48C5.98001 23.3 6.65001 23.98 7.48001 23.98H12.48C13.3 23.98 13.98 23.3 13.98 22.48V7.98001C13.97 6.21001 12.81 4.65001 11.12 4.14001L11.47 4.61001L11.5 4.64801ZM10.5 4.64801C10.5 4.86801 10.64 5.05801 10.85 5.11801C12.12 5.48801 12.99 6.65801 12.99 7.98801L12.98 22.478C12.98 22.748 12.75 22.978 12.48 22.978H7.48001C7.20001 22.978 6.98001 22.748 6.98001 22.478V7.97001C6.98001 6.64 7.85001 5.47001 9.12001 5.09001C9.33001 5.02001 9.47001 4.83001 9.47001 4.61001V2.46001L8.97001 2.96001H10.97L10.47 2.46001V4.60001L10.5 4.64801Z" fill="black"/>
<path d="M4.29001 0.95001L8.79001 2.95001L8.99001 1.99001C5.67001 1.99001 2.99001 4.67001 2.99001 7.99001V20.49C2.99001 20.76 3.21001 20.99 3.49001 20.99C3.76001 20.99 3.99001 20.76 3.99001 20.49V7.99001C3.99001 5.22001 6.22001 2.99001 8.99001 2.99001C9.53001 2.99001 9.68001 2.25001 9.19001 2.03001L4.69001 0.0300098C4.43001 -0.0899902 4.14001 0.0300098 4.03001 0.28001C3.91001 0.53001 4.03001 0.82001 4.28001 0.93001L4.29001 0.95001Z" fill="black"/>
<path d="M20 1V0.998004L19.99 3.988L19.989 3.987L13.919 3.177C13.669 3.137 13.479 2.927 13.479 2.677V2.277C13.469 2.017 13.659 1.807 13.909 1.777L19.969 0.967004L20 1ZM19.86 3.94136e-06L13.79 0.808004C13.04 0.898004 12.48 1.538 12.48 2.288L12.47 2.678C12.47 3.428 13.02 4.058 13.77 4.158L19.83 4.958H19.97C20.52 4.948 20.96 4.498 20.96 3.948V0.948004C20.95 0.878004 20.95 0.878004 20.95 0.808004C20.87 0.258004 20.37 -0.131996 19.82 -0.0519961L19.86 3.94136e-06Z" fill="black"/>
<path d="M11 3H13C13.27 3 13.5 2.77 13.5 2.5C13.5 2.22 13.27 2 13 2H11C10.72 2 10.5 2.22 10.5 2.5C10.5 2.77 10.72 3 11 3Z" fill="black"/>
<path d="M13.5 20H11V10H13.5C13.77 10 14 9.77 14 9.5C14 9.22 13.77 9 13.5 9H11C10.44 9 10 9.44 10 10V20C10 20.55 10.44 21 11 21H13.5C13.77 21 14 20.77 14 20.5C14 20.22 13.77 20 13.5 20Z" fill="black"/>
</g>
<defs>
<clipPath id="clip0_2_129">
<rect width="24" height="24" fill="white"/>
</clipPath>
</defs>
</svg>
