<svg width="26" height="24" viewBox="0 0 26 24" fill="none" xmlns="http://www.w3.org/2000/svg">
<g clip-path="url(#clip0_18727_363096)">
<path d="M13.0831 0.249984C6.34308 0.249984 0.830078 4.79998 0.830078 10.5C0.880078 13.38 2.24008 16.08 4.52008 17.83L4.28008 16.94L1.88008 22.699C1.60008 23.359 2.32008 23.989 2.94008 23.629L9.31208 19.979L8.71208 20.039C10.1121 20.479 11.5821 20.709 13.0621 20.709C19.7921 20.709 25.3021 16.149 25.3021 10.459C25.3021 4.75898 19.7821 0.208984 13.0521 0.208984L13.0831 0.249984ZM13.0831 1.74998C19.0431 1.74998 23.8331 5.69998 23.8331 10.5C23.8331 15.29 19.0431 19.25 13.0831 19.25C11.7531 19.25 10.4431 19.04 9.17308 18.64C8.97308 18.57 8.75308 18.59 8.57308 18.7L2.20008 22.34L3.26008 23.27L5.66008 17.511C5.79008 17.191 5.69008 16.831 5.42008 16.621C3.50008 15.141 2.36008 12.871 2.31008 10.451C2.31008 5.66098 7.09008 1.71098 13.0601 1.71098L13.0831 1.74998Z" fill="#0A2878"/>
<path d="M14.333 15V9C14.333 8.03 13.543 7.25 12.583 7.25H11.583C11.163 7.25 10.833 7.58 10.833 8C10.833 8.41 11.163 8.75 11.583 8.75H12.583C12.713 8.75 12.833 8.86 12.833 9V15C12.833 15.41 13.163 15.75 13.583 15.75C13.993 15.75 14.333 15.41 14.333 15Z" fill="#0A2878"/>
<path d="M11.5801 15.75H15.5801C15.9901 15.75 16.3301 15.41 16.3301 15C16.3301 14.58 15.9901 14.25 15.5801 14.25H11.5801C11.1601 14.25 10.8301 14.58 10.8301 15C10.8301 15.41 11.1601 15.75 11.5801 15.75Z" fill="#0A2878"/>
<path d="M13.333 6.25C13.053 6.25 12.833 6.02 12.833 5.75C12.833 5.47 13.053 5.25 13.333 5.25C13.603 5.25 13.833 5.47 13.833 5.75C13.833 6.02 13.603 6.25 13.333 6.25C13.743 6.25 14.083 5.91 14.083 5.5C14.083 5.08 13.743 4.75 13.333 4.75C12.773 4.75 12.333 5.19 12.333 5.75C12.333 6.3 12.773 6.75 13.333 6.75C13.883 6.75 14.333 6.3 14.333 5.75C14.333 5.19 13.883 4.75 13.333 4.75C12.913 4.75 12.583 5.08 12.583 5.5C12.583 5.91 12.913 6.25 13.333 6.25Z" fill="#0A2878"/>
</g>
<defs>
<clipPath id="clip0_18727_363096">
<rect width="26" height="24" fill="white"/>
</clipPath>
</defs>
</svg>
