<svg width="24" height="24" viewBox="0 0 24 24" fill="none" xmlns="http://www.w3.org/2000/svg">
<g clip-path="url(#clip0_4_136)">
<path d="M18 4.294C19.4861 4.05693 20.9881 3.93258 22.493 3.922C22.5592 3.92107 22.625 3.93332 22.6865 3.95803C22.748 3.98274 22.8039 4.01943 22.8511 4.06595C22.8983 4.11247 22.9357 4.1679 22.9613 4.22903C22.9868 4.29015 23 4.35575 23 4.422V20.188C23 20.3194 22.9483 20.4455 22.856 20.5391C22.7638 20.6327 22.6384 20.6862 22.507 20.688C14.4 20.791 12 23.419 12 23.419V6.653C12 6.653 9.6 4.028 1.507 3.922C1.44075 3.92107 1.37498 3.93332 1.31351 3.95803C1.25203 3.98274 1.19609 4.01943 1.14891 4.06595C1.10174 4.11247 1.06428 4.1679 1.03872 4.22903C1.01315 4.29015 0.999994 4.35575 1 4.422V20.188C0.999987 20.3194 1.0517 20.4455 1.14396 20.5391C1.23622 20.6327 1.36161 20.6862 1.493 20.688C9.6 20.791 12 23.419 12 23.419" stroke="#0A2878" stroke-linecap="round" stroke-linejoin="round"/>
<path d="M12 22.919C12.1987 21.3973 12.8948 19.984 13.9799 18.8989C15.065 17.8138 16.4783 17.1177 18 16.919V1.081C18 1.00143 17.981 0.923005 17.9446 0.852253C17.9082 0.7815 17.8554 0.720458 17.7907 0.674199C17.7259 0.627941 17.6511 0.597802 17.5724 0.586287C17.4936 0.574773 17.4133 0.582215 17.338 0.607996C12.347 2.312 12 5.949 12 6.419" stroke="#0A2878" stroke-linecap="round" stroke-linejoin="round"/>
</g>
<defs>
<clipPath id="clip0_4_136">
<rect width="24" height="24" fill="white"/>
</clipPath>
</defs>
</svg>
