<svg width="24" height="24" viewBox="0 0 24 24" fill="none" xmlns="http://www.w3.org/2000/svg">
<g clip-path="url(#clip0_1_59)">
<path d="M3.516 21.979C3.38393 22.3622 3.10664 22.6782 2.74384 22.859C2.38104 23.0398 1.96176 23.0708 1.57629 22.9455C1.19082 22.8201 0.869992 22.5484 0.682901 22.1889C0.495809 21.8293 0.457419 21.4106 0.575997 21.023L7.5 1.569C7.56006 1.37268 7.65862 1.19029 7.78992 1.03247C7.92123 0.874652 8.08266 0.744567 8.26478 0.649806C8.4469 0.555046 8.64607 0.497508 8.85067 0.480552C9.05527 0.463595 9.2612 0.487559 9.45644 0.551044C9.65168 0.61453 9.83231 0.716266 9.98781 0.850315C10.1433 0.984364 10.2705 1.14804 10.3621 1.33179C10.4537 1.51555 10.5077 1.7157 10.5211 1.92056C10.5345 2.12543 10.5069 2.3309 10.44 2.525L3.516 21.979Z" stroke="white" stroke-width="1.5" stroke-linecap="round" stroke-linejoin="round"/>
<path d="M16.5 22.431C16.4399 22.6273 16.3414 22.8097 16.2101 22.9675C16.0788 23.1253 15.9173 23.2554 15.7352 23.3502C15.5531 23.445 15.3539 23.5025 15.1493 23.5194C14.9447 23.5364 14.7388 23.5124 14.5436 23.449C14.3483 23.3855 14.1677 23.2837 14.0122 23.1497C13.8567 23.0156 13.7294 22.852 13.6379 22.6682C13.5463 22.4845 13.4923 22.2843 13.4789 22.0794C13.4655 21.8746 13.4931 21.6691 13.56 21.475L20.484 2.022C20.5441 1.82568 20.6426 1.64329 20.7739 1.48547C20.9052 1.32765 21.0667 1.19757 21.2488 1.10281C21.4309 1.00805 21.6301 0.950511 21.8347 0.933555C22.0393 0.916598 22.2452 0.940562 22.4404 1.00405C22.6357 1.06753 22.8163 1.16927 22.9718 1.30332C23.1273 1.43737 23.2545 1.60104 23.3461 1.7848C23.4377 1.96855 23.4917 2.1687 23.5051 2.37356C23.5185 2.57843 23.4909 2.7839 23.424 2.978L16.5 22.431Z" stroke="white" stroke-width="1.5" stroke-linecap="round" stroke-linejoin="round"/>
<path d="M4.568 19.027L14.09 19.976" stroke="white" stroke-width="1.5" stroke-linecap="round" stroke-linejoin="round"/>
<path d="M5.998 15.009L15.501 16.013" stroke="white" stroke-width="1.5" stroke-linecap="round" stroke-linejoin="round"/>
<path d="M7.429 10.991L16.932 11.995" stroke="white" stroke-width="1.5" stroke-linecap="round" stroke-linejoin="round"/>
<path d="M8.841 7.025L18.363 7.976" stroke="white" stroke-width="1.5" stroke-linecap="round" stroke-linejoin="round"/>
<path d="M10.281 2.981L19.787 3.98" stroke="white" stroke-width="1.5" stroke-linecap="round" stroke-linejoin="round"/>
</g>
<defs>
<clipPath id="clip0_1_59">
<rect width="24" height="24" fill="white"/>
</clipPath>
</defs>
</svg>
