<svg width="131" height="25" viewBox="0 0 131 25" fill="none" xmlns="http://www.w3.org/2000/svg">
<path fill-rule="evenodd" clip-rule="evenodd" d="M8.11423 7.62937C16.3811 1.24031 25.0145 -1.40773 26.0408 0.726195C26.7942 2.29212 24.0909 6.49737 19.3336 11.1501C19.1773 11.3026 18.8142 11.2936 18.923 11.0485C20.3117 9.12255 20.9107 7.6005 20.5105 6.77651C19.6149 4.93859 12.957 6.86356 5.38494 11.3146C3.20286 12.7288 3.06587 12.0273 4.45418 10.7414C5.58038 9.68912 6.80332 8.64259 8.11423 7.62937ZM44.3362 7.29034C30.1558 7.45185 27.9696 23.0994 42.4169 23.0994L50.1474 23.1264L50.5469 19.4846H42.8167C36.2332 19.4037 37.2724 10.932 43.9634 10.7975H51.7197L52.1466 7.29034H44.3362ZM55.6759 7.2629L53.7566 23.1264C57.1152 23.1264 59.8341 23.1807 60.1273 19.9973L61.7 7.2629H55.6759ZM75.8744 23.1264H69.4771C68.011 17.8929 65.5853 12.4432 63.6662 7.2629H70.2502L73.1822 18.1358L78.6733 7.2629H85.1239L75.8744 23.1264ZM98.1325 23.0994C111.967 22.7491 114.099 7.45185 100.132 7.31722H95.3607C81.1796 7.47915 78.9943 23.0994 93.4412 23.0994C93.8681 23.0994 98.1063 23.1537 98.1325 23.0994ZM99.4391 10.8514C105.943 10.9054 104.93 19.1336 98.4795 19.4846H93.8414C87.2572 19.4307 88.2971 10.932 94.9872 10.7975L99.4391 10.8514ZM118.117 10.7867L117.492 15.9846H121.268C126.701 15.8827 127.25 10.7504 122.153 10.7867H118.117ZM112.916 7.27762H115.703L115.704 7.2629L123.129 7.27419C134.712 7.3075 132.867 19.2332 121.802 19.2493H117.099L116.633 23.1269H111.009L112.916 7.27762Z" fill="white"/>
<path fill-rule="evenodd" clip-rule="evenodd" d="M61.9133 5.26844L62.5582 0.0191007C59.2264 0.0191007 56.5075 -0.0347816 56.1877 3.14839L55.9158 5.26844H61.9133ZM22.0622 20.3053C17.6275 22.7604 6.26405 26.6019 2.21424 24.1838C-1.83558 21.7659 -0.43174 16.8048 7.26612 11.4567C7.78862 11.1115 8.07769 11.4768 7.87081 11.7583C5.61756 13.8896 5.97187 15.9508 7.23209 17.5445C9.1114 19.9201 15.7515 21.2915 26.5173 16.1326C32.3657 12.7609 26.3826 17.9135 22.0622 20.3053Z" fill="white"/>
</svg>
