<svg width="222" height="25" viewBox="0 0 222 25" fill="none" xmlns="http://www.w3.org/2000/svg">
<path d="M158.702 6.4266L162.068 2.72793H160.321L156.47 7.05329V2.72793H155.048V11.3295H156.47V8.83505L157.731 7.45879L160.495 11.3295H162.218L158.702 6.4266Z" fill="white"/>
<path d="M163.428 11.3295H169.106V9.95325H164.85V2.72793H163.428V11.3295Z" fill="white"/>
<path d="M170.669 2.72793V11.3295H172.092V2.72793H170.669Z" fill="white"/>
<path d="M180.261 2.72793H174.259V11.3295H180.319V9.97782H175.681V7.66769H179.741V6.31601H175.681V4.0796H180.261V2.72793Z" fill="white"/>
<path d="M187.662 8.6753L183.325 2.72793H182.007V11.3295H183.406V5.2101L187.87 11.3295H189.061V2.72793H187.662V8.6753Z" fill="white"/>
<path d="M194.567 4.12876H197.134V2.72793H190.565V4.12876H193.133V11.3295H194.567V4.12876Z" fill="white"/>
<path d="M199.676 4.97662C199.676 4.68991 199.792 4.44824 200.023 4.25163C200.255 4.04684 200.578 3.94444 200.995 3.94444C201.365 3.94444 201.731 4.02226 202.093 4.17791C202.456 4.32536 202.822 4.54245 203.192 4.82917L203.955 3.68639C203.539 3.33413 203.092 3.06789 202.614 2.88767C202.143 2.69926 201.611 2.60505 201.018 2.60505C200.617 2.60505 200.247 2.66649 199.908 2.78937C199.568 2.90405 199.275 3.07199 199.029 3.29317C198.79 3.51436 198.601 3.7806 198.462 4.09189C198.323 4.39499 198.254 4.73496 198.254 5.11179C198.254 5.5132 198.312 5.85317 198.427 6.13169C198.551 6.41022 198.724 6.64779 198.948 6.84439C199.179 7.041 199.46 7.20484 199.792 7.33591C200.131 7.46698 200.517 7.58577 200.948 7.69226C201.326 7.79057 201.631 7.88477 201.862 7.97489C202.101 8.065 202.286 8.1633 202.417 8.2698C202.556 8.3681 202.648 8.47869 202.695 8.60157C202.749 8.72445 202.776 8.86372 202.776 9.01936C202.776 9.35523 202.645 9.62147 202.382 9.81808C202.128 10.0147 201.781 10.113 201.342 10.113C200.833 10.113 200.378 10.0188 199.977 9.83037C199.576 9.63376 199.179 9.35523 198.786 8.99479L197.93 10.0761C198.416 10.5431 198.944 10.8912 199.514 11.1206C200.085 11.3418 200.682 11.4524 201.307 11.4524C201.731 11.4524 202.12 11.395 202.475 11.2803C202.83 11.1657 203.134 10.9977 203.389 10.7765C203.643 10.5554 203.84 10.285 203.978 9.96554C204.125 9.64605 204.198 9.28151 204.198 8.87191C204.198 8.51146 204.14 8.20017 204.025 7.93802C203.917 7.66769 203.755 7.43422 203.539 7.23761C203.323 7.03281 203.049 6.86078 202.718 6.72152C202.394 6.58225 202.02 6.45528 201.596 6.34059C201.211 6.24228 200.891 6.14808 200.636 6.05797C200.389 5.96785 200.193 5.86955 200.046 5.76305C199.908 5.65656 199.811 5.54187 199.757 5.41899C199.703 5.29611 199.676 5.14866 199.676 4.97662Z" fill="white"/>
<path d="M209.526 6.4266L212.891 2.72793H211.145L207.294 7.05329V2.72793H205.871V11.3295H207.294V8.83505L208.554 7.45879L211.318 11.3295H213.042L209.526 6.4266Z" fill="white"/>
<path d="M218.438 2.66649H217.119L213.557 11.3295H215.015L215.847 9.25283H219.675L220.497 11.3295H222L218.438 2.66649ZM219.155 7.91345H216.368L217.756 4.47282L219.155 7.91345ZM218.288 2.01523L219.699 0.60211L218.426 0L217.2 2.01523H218.288Z" fill="white"/>
<path d="M155.864 18.2299C155.864 17.946 155.977 17.7067 156.202 17.512C156.427 17.3092 156.741 17.2078 157.146 17.2078C157.506 17.2078 157.862 17.2848 158.214 17.439C158.567 17.585 158.923 17.7999 159.283 18.0839L160.025 16.9523C159.62 16.6034 159.185 16.3398 158.72 16.1613C158.263 15.9748 157.746 15.8815 157.169 15.8815C156.779 15.8815 156.419 15.9423 156.089 16.064C155.76 16.1776 155.475 16.3439 155.235 16.5629C155.002 16.7819 154.819 17.0455 154.684 17.3538C154.549 17.6539 154.481 17.9906 154.481 18.3637C154.481 18.7612 154.538 19.0979 154.65 19.3737C154.77 19.6495 154.939 19.8847 155.156 20.0794C155.381 20.2741 155.655 20.4363 155.977 20.5661C156.307 20.6959 156.682 20.8135 157.101 20.919C157.469 21.0163 157.765 21.1096 157.99 21.1988C158.222 21.2881 158.402 21.3854 158.529 21.4909C158.664 21.5882 158.754 21.6977 158.799 21.8194C158.852 21.9411 158.878 22.079 158.878 22.2331C158.878 22.5657 158.75 22.8293 158.495 23.024C158.248 23.2187 157.911 23.316 157.484 23.316C156.989 23.316 156.547 23.2228 156.157 23.0362C155.767 22.8415 155.381 22.5657 154.999 22.2088L154.167 23.2795C154.639 23.7419 155.152 24.0867 155.707 24.3138C156.262 24.5328 156.843 24.6423 157.45 24.6423C157.862 24.6423 158.241 24.5856 158.585 24.472C158.93 24.3584 159.226 24.1921 159.474 23.9731C159.721 23.7541 159.912 23.4864 160.047 23.17C160.19 22.8537 160.261 22.4927 160.261 22.0871C160.261 21.7302 160.205 21.4219 160.092 21.1623C159.987 20.8946 159.83 20.6634 159.62 20.4688C159.41 20.266 159.144 20.0956 158.822 19.9577C158.507 19.8198 158.143 19.6941 157.731 19.5805C157.356 19.4832 157.045 19.3899 156.798 19.3006C156.558 19.2114 156.367 19.1141 156.224 19.0086C156.089 18.9032 155.996 18.7896 155.943 18.6679C155.891 18.5462 155.864 18.4002 155.864 18.2299Z" fill="white"/>
<path d="M167.723 16.0032H161.887V24.5207H167.779V23.1822H163.27V20.8946H167.217V19.5562H163.27V17.3416H167.723V16.0032Z" fill="white"/>
<path d="M172.973 19.6657L176.244 16.0032H174.547L170.803 20.2862V16.0032H169.42V24.5207H170.803V22.0506L172.028 20.6878L174.715 24.5207H176.391L172.973 19.6657Z" fill="white"/>
<path d="M183.821 23.1579L182.933 22.1844C182.596 22.5251 182.255 22.7969 181.91 22.9997C181.565 23.1944 181.153 23.2917 180.673 23.2917C180.298 23.2917 179.95 23.2146 179.627 23.0605C179.313 22.8983 179.039 22.6793 178.807 22.4035C178.574 22.1276 178.394 21.8072 178.267 21.4422C178.14 21.069 178.076 20.6716 178.076 20.2497C178.076 19.8279 178.14 19.4345 178.267 19.0695C178.394 18.7044 178.574 18.3881 178.807 18.1204C179.039 17.8446 179.313 17.6296 179.627 17.4755C179.95 17.3132 180.298 17.2321 180.673 17.2321C181.123 17.2321 181.524 17.3295 181.876 17.5241C182.229 17.7188 182.562 17.9744 182.877 18.2907L183.765 17.1834C183.578 16.9888 183.379 16.8103 183.169 16.6481C182.959 16.4858 182.731 16.3479 182.483 16.2344C182.236 16.1127 181.962 16.0194 181.663 15.9545C181.37 15.8896 181.044 15.8571 180.684 15.8571C180.085 15.8571 179.538 15.9748 179.043 16.21C178.548 16.4371 178.121 16.7535 177.761 17.1591C177.401 17.5566 177.12 18.023 176.918 18.5584C176.723 19.0938 176.625 19.6657 176.625 20.2741C176.625 20.8906 176.727 21.4665 176.929 22.0019C177.131 22.5373 177.409 23.0037 177.761 23.4012C178.121 23.7906 178.544 24.0988 179.032 24.326C179.519 24.5531 180.051 24.6667 180.628 24.6667C180.995 24.6667 181.329 24.6302 181.629 24.5572C181.936 24.4923 182.217 24.3949 182.472 24.2651C182.727 24.1272 182.963 23.969 183.18 23.7906C183.405 23.604 183.619 23.3931 183.821 23.1579Z" fill="white"/>
<path d="M191.11 16.0032H185.275V24.5207H191.167V23.1822H186.658V20.8946H190.604V19.5562H186.658V17.3416H191.11V16.0032Z" fill="white"/>
<line x1="144.095" y1="1.7619" x2="144.095" y2="24.6667" stroke="white"/>
<path d="M3.88596 14.2414H13.859C14.0945 13.6699 14.2757 13.0984 14.4025 12.5269C14.5293 11.9554 14.5927 11.4023 14.5927 10.8677C14.5927 10.0381 14.4568 9.27304 14.1851 8.5725C13.9315 7.87195 13.551 7.26358 13.0438 6.74738C12.5365 6.23119 11.9115 5.82561 11.1687 5.53064C10.426 5.23567 9.58355 5.08819 8.6415 5.08819C7.33712 5.08819 6.1505 5.34629 5.08163 5.86248C4.03089 6.37867 3.12507 7.06079 2.36418 7.90882C1.6033 8.73841 1.01452 9.68784 0.597839 10.7571C0.19928 11.8079 0 12.868 0 13.9372C0 14.9696 0.153989 15.8914 0.461967 16.7025C0.769945 17.5137 1.2138 18.205 1.79352 18.7765C2.37324 19.3296 3.07978 19.7628 3.91313 20.0762C4.74648 20.3712 5.68853 20.5187 6.73928 20.5187C7.98931 20.5187 9.06723 20.3343 9.97305 19.9656C10.897 19.5785 11.685 19.1084 12.3372 18.5553L10.435 15.9559C9.83718 16.3799 9.28463 16.6841 8.77737 16.8685C8.27011 17.0528 7.74474 17.145 7.20125 17.145C6.11427 17.145 5.30809 16.8869 4.78271 16.3707C4.25734 15.8361 3.95842 15.1263 3.88596 14.2414ZM4.23922 11.6143C4.58343 10.6741 5.10881 9.91828 5.81535 9.34678C6.54 8.75685 7.37335 8.46188 8.3154 8.46188C9.16687 8.46188 9.77377 8.67389 10.1361 9.09791C10.5165 9.52192 10.7068 10.0381 10.7068 10.6465C10.7068 10.9783 10.6615 11.3009 10.5709 11.6143H4.23922Z" fill="#F02D00"/>
<path d="M16.0444 13.633H24.4142L25.474 9.59566H17.1042L16.0444 13.633Z" fill="#F02D00"/>
<path d="M25.5857 20.1868H29.7162L35.0424 0H30.9119L25.5857 20.1868Z" fill="#F02D00"/>
<path d="M38.1609 14.2414H48.1339C48.3694 13.6699 48.5506 13.0984 48.6774 12.5269C48.8042 11.9554 48.8676 11.4023 48.8676 10.8677C48.8676 10.0381 48.7318 9.27304 48.46 8.5725C48.2064 7.87195 47.8259 7.26358 47.3187 6.74738C46.8114 6.23119 46.1864 5.82561 45.4436 5.53064C44.7009 5.23567 43.8585 5.08819 42.9164 5.08819C41.612 5.08819 40.4254 5.34629 39.3566 5.86248C38.3058 6.37867 37.4 7.06079 36.6391 7.90882C35.8782 8.73841 35.2894 9.68784 34.8728 10.7571C34.4742 11.8079 34.2749 12.868 34.2749 13.9372C34.2749 14.9696 34.4289 15.8914 34.7369 16.7025C35.0449 17.5137 35.4887 18.205 36.0684 18.7765C36.6482 19.3296 37.3547 19.7628 38.1881 20.0762C39.0214 20.3712 39.9635 20.5187 41.0142 20.5187C42.2642 20.5187 43.3421 20.3343 44.248 19.9656C45.1719 19.5785 45.96 19.1084 46.6122 18.5553L44.7099 15.9559C44.1121 16.3799 43.5595 16.6841 43.0523 16.8685C42.545 17.0528 42.0197 17.145 41.4762 17.145C40.3892 17.145 39.583 16.8869 39.0576 16.3707C38.5323 15.8361 38.2333 15.1263 38.1609 14.2414ZM38.5141 11.6143C38.8584 10.6741 39.3837 9.91828 40.0903 9.34678C40.8149 8.75685 41.6483 8.46188 42.5903 8.46188C43.4418 8.46188 44.0487 8.67389 44.411 9.09791C44.7915 9.52192 44.9817 10.0381 44.9817 10.6465C44.9817 10.9783 44.9364 11.3009 44.8458 11.6143H38.5141Z" fill="#F02D00"/>
<path d="M53.5531 20.4634C54.4227 20.4634 55.2198 20.2975 55.9445 19.9656C56.6691 19.6153 57.3213 19.1176 57.901 18.4723L57.4662 20.1868H61.4609L63.6077 12.0015C63.6983 11.6328 63.7707 11.2641 63.8251 10.8954C63.8975 10.5267 63.9338 10.1487 63.9338 9.76158C63.9338 8.30518 63.4446 7.18062 62.4664 6.38789C61.4881 5.59516 60.0116 5.1988 58.0369 5.1988C57.0043 5.1988 56.035 5.3002 55.1292 5.50299C54.2234 5.68734 53.3901 5.93622 52.6292 6.24963L53.2814 9.56801C53.8067 9.34678 54.4046 9.16243 55.0749 9.01495C55.7633 8.84903 56.4608 8.76607 57.1673 8.76607C58.2 8.76607 58.9155 8.93199 59.3141 9.26383C59.7127 9.57723 59.9119 9.99203 59.9119 10.5082C59.9119 10.7294 59.8938 10.9322 59.8576 11.1166C59.8214 11.2825 59.7851 11.4484 59.7489 11.6143L59.6946 11.8079C59.0786 11.6051 58.4355 11.4484 57.7652 11.3378C57.113 11.2088 56.3883 11.1442 55.5912 11.1442C54.7035 11.1442 53.8792 11.2641 53.1183 11.5037C52.3574 11.725 51.6962 12.066 51.1346 12.5269C50.573 12.9878 50.1291 13.5501 49.803 14.2138C49.4769 14.8774 49.3139 15.6333 49.3139 16.4813C49.3139 17.0712 49.4135 17.6059 49.6128 18.0852C49.8302 18.5645 50.1201 18.9885 50.4824 19.3572C50.8628 19.7075 51.3067 19.9841 51.8139 20.1868C52.3393 20.3712 52.919 20.4634 53.5531 20.4634ZM55.3195 17.5874C54.7397 17.5874 54.2778 17.44 53.9336 17.145C53.5893 16.85 53.4172 16.4721 53.4172 16.0112C53.4172 15.2922 53.689 14.7299 54.2325 14.3244C54.7941 13.9003 55.5097 13.6883 56.3793 13.6883C56.8865 13.6883 57.3757 13.7436 57.8467 13.8543C58.3177 13.9464 58.7344 14.0663 59.0967 14.2138L58.988 14.6009C58.8793 15.0065 58.7072 15.3936 58.4717 15.7623C58.2362 16.1126 57.9554 16.426 57.6293 16.7025C57.3032 16.9791 56.9409 17.2003 56.5423 17.3662C56.1619 17.5137 55.7542 17.5874 55.3195 17.5874Z" fill="#F02D00"/>
<path d="M64.4743 20.1868H68.6048L69.9907 14.9327C70.498 12.997 71.2589 11.6051 72.2734 10.7571C73.2879 9.90907 74.4836 9.48505 75.8604 9.48505H76.0778L77.2463 5.08819C76.0506 4.99601 75.0089 5.24489 74.1212 5.83483C73.2517 6.40633 72.4455 7.24514 71.7027 8.35127L72.4908 5.36472H68.3603L64.4743 20.1868Z" fill="#F02D00"/>
<path d="M75.3154 20.1868H79.446L81.6471 11.8632C81.8826 10.9783 82.2631 10.2686 82.7884 9.73393C83.3138 9.18087 83.9841 8.90433 84.7993 8.90433C85.4334 8.90433 85.9226 9.06104 86.2668 9.37444C86.6291 9.68784 86.8103 10.1395 86.8103 10.7294C86.8103 10.9138 86.7921 11.135 86.7559 11.3931C86.7197 11.6328 86.6744 11.854 86.62 12.0568L84.4733 20.1868H88.6038L90.6962 12.2227C90.823 11.7434 90.9317 11.2641 91.0223 10.7848C91.131 10.287 91.1854 9.82611 91.1854 9.40209C91.1854 8.0563 90.7959 7.00548 90.0168 6.24963C89.2378 5.47534 88.1962 5.08819 86.8918 5.08819C86.0765 5.08819 85.3428 5.27255 84.6906 5.64126C84.0385 6.00996 83.4497 6.43398 82.9243 6.9133L83.3319 5.36472H79.2014L75.3154 20.1868Z" fill="#F02D00"/>
<path d="M95.9991 3.73318H100.347L101.352 0H97.0045L95.9991 3.73318ZM91.7598 20.1868H95.8904L99.8035 5.36472H95.673L91.7598 20.1868Z" fill="#F02D00"/>
<path d="M99.2534 20.1868H103.384L105.585 11.8632C105.821 10.9783 106.201 10.2686 106.726 9.73393C107.252 9.18087 107.922 8.90433 108.737 8.90433C109.371 8.90433 109.861 9.06104 110.205 9.37444C110.567 9.68784 110.748 10.1395 110.748 10.7294C110.748 10.9138 110.73 11.135 110.694 11.3931C110.658 11.6328 110.612 11.854 110.558 12.0568L108.411 20.1868H112.542L114.634 12.2227C114.761 11.7434 114.87 11.2641 114.96 10.7848C115.069 10.287 115.123 9.82611 115.123 9.40209C115.123 8.0563 114.734 7.00548 113.955 6.24963C113.176 5.47534 112.134 5.08819 110.83 5.08819C110.015 5.08819 109.281 5.27255 108.629 5.64126C107.976 6.00996 107.388 6.43398 106.862 6.9133L107.27 5.36472H103.139L99.2534 20.1868Z" fill="#F02D00"/>
<path d="M122.41 24.6667C123.751 24.6667 124.883 24.4915 125.807 24.1413C126.749 23.8094 127.555 23.3024 128.225 22.6203C128.515 22.3254 128.769 22.0212 128.986 21.7078C129.222 21.3944 129.439 21.0349 129.638 20.6293C129.838 20.2237 130.028 19.7536 130.209 19.219C130.39 18.6844 130.58 18.0391 130.78 17.2833L133.905 5.36472H129.774L129.176 7.65994C128.977 7.3281 128.751 7.00548 128.497 6.69208C128.262 6.37867 127.963 6.10214 127.6 5.86248C127.256 5.62282 126.848 5.43846 126.377 5.30941C125.906 5.16193 125.363 5.08819 124.747 5.08819C123.732 5.08819 122.745 5.30942 121.785 5.75187C120.843 6.19432 120 6.81191 119.258 7.60463C118.515 8.37892 117.917 9.3007 117.464 10.37C117.011 11.4208 116.785 12.5638 116.785 13.799C116.785 14.647 116.93 15.3936 117.22 16.0389C117.528 16.6841 117.935 17.2279 118.442 17.6704C118.95 18.0944 119.52 18.417 120.154 18.6383C120.807 18.8595 121.486 18.9701 122.193 18.9701C123.098 18.9701 123.895 18.8226 124.584 18.5277C125.272 18.2142 125.997 17.7073 126.758 17.0067L126.622 17.5045C126.459 18.0944 126.269 18.6106 126.051 19.0531C125.852 19.4771 125.598 19.8458 125.29 20.1592C124.892 20.5648 124.439 20.8597 123.932 21.0441C123.424 21.2469 122.827 21.3483 122.138 21.3483C121.214 21.3483 120.299 21.2008 119.394 20.9058C118.488 20.6293 117.654 20.2329 116.894 19.7167L114.72 22.5927C115.698 23.2564 116.857 23.7633 118.198 24.1136C119.538 24.4823 120.943 24.6667 122.41 24.6667ZM123.823 15.6241C123.008 15.6241 122.337 15.4121 121.812 14.988C121.305 14.5456 121.051 13.8819 121.051 12.997C121.051 12.4255 121.16 11.8724 121.377 11.3378C121.595 10.8032 121.894 10.3331 122.274 9.9275C122.655 9.52192 123.098 9.1993 123.606 8.95964C124.113 8.71998 124.656 8.60015 125.236 8.60015C126.106 8.60015 126.803 8.83981 127.329 9.31913C127.854 9.79845 128.117 10.4621 128.117 11.3102C128.117 11.9001 127.999 12.4624 127.763 12.997C127.528 13.5132 127.211 13.9649 126.812 14.352C126.432 14.7392 125.979 15.0526 125.453 15.2922C124.928 15.5135 124.385 15.6241 123.823 15.6241Z" fill="#F02D00"/>
</svg>
