<svg width="24" height="24" viewBox="0 0 24 24" fill="none" xmlns="http://www.w3.org/2000/svg">
<g clip-path="url(#clip0_2_105)">
<path d="M13.2 11.61C12.48 12.14 11.51 12.14 10.8 11.61C10.57 11.44 10.26 11.48 10.1 11.71C9.93 11.93 9.97 12.24 10.2 12.41C11.26 13.21 12.73 13.21 13.8 12.41C14.02 12.24 14.06 11.93 13.9 11.71C13.73 11.48 13.42 11.44 13.2 11.61Z" fill="black"/>
<path d="M23.5 23.51V21.4C23.5 20.62 23.14 19.89 22.53 19.42C20.27 17.69 16.81 16.5 11.99 16.5C7.17 16.5 3.73 17.68 1.45 19.41C0.830001 19.88 0.470001 20.61 0.480001 21.39L0.470001 23.49C0.470001 23.76 0.690001 23.99 0.970001 23.99C1.24 23.99 1.47 23.76 1.47 23.49V21.38C1.46 20.91 1.67 20.47 2.04 20.19C4.13 18.59 7.37 17.47 11.96 17.47C16.55 17.47 19.8 18.58 21.88 20.18C22.24 20.46 22.45 20.89 22.45 21.35L22.44 23.45C22.44 23.72 22.66 23.95 22.94 23.95C23.21 23.95 23.44 23.72 23.44 23.45L23.5 23.51Z" fill="black"/>
<path d="M14 9.767C13.86 9.767 13.75 9.647 13.75 9.517C13.75 9.377 13.86 9.267 14 9.267C14.13 9.267 14.25 9.377 14.25 9.517C14.25 9.647 14.13 9.767 14 9.767C14.27 9.767 14.5 9.537 14.5 9.267C14.5 8.987 14.27 8.767 14 8.767C13.58 8.767 13.25 9.097 13.25 9.517C13.25 9.927 13.58 10.267 14 10.267C14.41 10.267 14.75 9.927 14.75 9.517C14.75 9.097 14.41 8.767 14 8.767C13.72 8.767 13.5 8.987 13.5 9.267C13.5 9.537 13.72 9.767 14 9.767Z" fill="black"/>
<path d="M10 9.767C9.86 9.767 9.75 9.647 9.75 9.517C9.75 9.377 9.86 9.267 10 9.267C10.13 9.267 10.25 9.377 10.25 9.517C10.25 9.647 10.13 9.767 10 9.767C10.27 9.767 10.5 9.537 10.5 9.267C10.5 8.987 10.27 8.767 10 8.767C9.58 8.767 9.25 9.097 9.25 9.517C9.25 9.927 9.58 10.267 10 10.267C10.41 10.267 10.75 9.927 10.75 9.517C10.75 9.097 10.41 8.767 10 8.767C9.72 8.767 9.5 8.987 9.5 9.267C9.5 9.537 9.72 9.767 10 9.767Z" fill="black"/>
<path d="M4.5 8.02H19.5C19.77 8.02 20 7.79 20 7.52C20 7.24 19.77 7.02 19.5 7.02H4.5C4.22 7.02 4 7.24 4 7.52C4 7.79 4.22 8.02 4.5 8.02Z" fill="black"/>
<path d="M10.08 1.3C7.35 2.14 5.49 4.66 5.49 7.51L5.48 9.5C5.48 13.08 8.39 16 11.98 16C15.56 16 18.48 13.08 18.48 9.5V7.5C18.48 4.64 16.62 2.12 13.89 1.28C13.62 1.19 13.34 1.34 13.26 1.61C13.17 1.87 13.32 2.15 13.59 2.23C15.89 2.94 17.46 5.07 17.46 7.48L17.45 9.48C17.45 12.51 14.98 14.98 11.95 14.98C8.91 14.98 6.45 12.51 6.45 9.48V7.48C6.44 5.06 8.02 2.93 10.32 2.22C10.58 2.13 10.73 1.85 10.65 1.59C10.56 1.32 10.28 1.17 10.02 1.25L10.08 1.3Z" fill="black"/>
<path d="M15.48 7.41L14.14 1.2C13.99 0.5 13.38 0.01 12.67 0.01L11.28 0C10.57 0 9.96001 0.49 9.81001 1.18L8.47001 7.38C8.41001 7.65 8.58001 7.91 8.85001 7.97C9.12001 8.02 9.38001 7.85 9.44001 7.58L10.77 1.371C10.81 1.131 11.02 0.971 11.25 0.971H12.63C12.86 0.971 13.06 1.131 13.11 1.361L14.44 7.561C14.49 7.831 14.76 8.001 15.03 7.941C15.3 7.881 15.47 7.611 15.41 7.341L15.48 7.41Z" fill="black"/>
<path d="M11.5 3.52V5.52C11.5 5.79 11.72 6.02 12 6.02C12.27 6.02 12.5 5.79 12.5 5.52V3.52C12.5 3.24 12.27 3.02 12 3.02C11.72 3.02 11.5 3.24 11.5 3.52Z" fill="black"/>
<path d="M6.5 17.54V21.52C6.5 21.79 6.72 22.02 7 22.02C7.27 22.02 7.5 21.79 7.5 21.52V17.54C7.5 17.26 7.27 17.04 7 17.04C6.72 17.04 6.5 17.26 6.5 17.54Z" fill="black"/>
<path d="M5.5 23.52V18.13C5.5 17.85 5.27 17.63 5 17.63C4.72 17.63 4.5 17.85 4.5 18.13V23.52C4.5 23.79 4.72 24.02 5 24.02C5.27 24.02 5.5 23.79 5.5 23.52Z" fill="black"/>
<path d="M16.5 17.54V21.52C16.5 21.79 16.72 22.02 17 22.02C17.27 22.02 17.5 21.79 17.5 21.52V17.54C17.5 17.26 17.27 17.04 17 17.04C16.72 17.04 16.5 17.26 16.5 17.54Z" fill="black"/>
<path d="M19.5 23.52V18.13C19.5 17.85 19.27 17.63 19 17.63C18.72 17.63 18.5 17.85 18.5 18.13V23.52C18.5 23.79 18.72 24.02 19 24.02C19.27 24.02 19.5 23.79 19.5 23.52Z" fill="black"/>
<path d="M7 22.01H17L16.5 21.51V23.51L17 23.01H7L7.5 23.51V21.51L7 22.01ZM7 21.01C6.72 21.01 6.5 21.23 6.5 21.51V23.51C6.5 23.78 6.72 24.01 7 24.01H17C17.27 24.01 17.5 23.78 17.5 23.51V21.51C17.5 21.23 17.27 21.01 17 21.01H7Z" fill="black"/>
<path d="M11.5 17.02V21.52C11.5 21.79 11.72 22.02 12 22.02C12.27 22.02 12.5 21.79 12.5 21.52V17.02C12.5 16.74 12.27 16.52 12 16.52C11.72 16.52 11.5 16.74 11.5 17.02Z" fill="black"/>
</g>
<defs>
<clipPath id="clip0_2_105">
<rect width="24" height="24" fill="white"/>
</clipPath>
</defs>
</svg>
